<mxfile host="42eb2060-b86c-4b28-ad79-5e9f986fcb6d" modified="2020-07-20T02:05:24.026Z" agent="5.0 (X11; Linux x86_64) AppleWebKit/537.36 (KHTML, like Gecko) Code/1.47.1 Chrome/78.0.3904.130 Electron/7.3.2 Safari/537.36" etag="kg_cPJ-72oY6zys7_rNQ" version="13.1.3">
    <diagram id="6hGFLwfOUW9BJ-s0fimq" name="Page-1">
        <mxGraphModel dx="748" dy="697" grid="1" gridSize="10" guides="1" tooltips="1" connect="1" arrows="1" fold="1" page="1" pageScale="1" pageWidth="1700" pageHeight="1100" math="0" shadow="0">
            <root>
                <mxCell id="0"/>
                <mxCell id="1" parent="0"/>
                <mxCell id="2" value="&lt;font style=&quot;font-size: 12px&quot;&gt;main&lt;/font&gt;" style="whiteSpace=wrap;html=1;aspect=fixed;" parent="1" vertex="1">
                    <mxGeometry y="350" width="80" height="80" as="geometry"/>
                </mxCell>
                <mxCell id="3" value="locker&lt;br&gt;线程同步机制包装类" style="ellipse;whiteSpace=wrap;html=1;" parent="1" vertex="1">
                    <mxGeometry x="100" y="160" width="120" height="80" as="geometry"/>
                </mxCell>
                <mxCell id="25" value="threadpool.h&lt;br&gt;半同步/半反应堆线程池" style="ellipse;whiteSpace=wrap;html=1;" parent="1" vertex="1">
                    <mxGeometry x="100" y="320" width="120" height="80" as="geometry"/>
                </mxCell>
                <mxCell id="9" value="" style="shape=curlyBracket;whiteSpace=wrap;html=1;rounded=1;" parent="1" vertex="1">
                    <mxGeometry x="240" y="140" width="20" height="120" as="geometry"/>
                </mxCell>
                <mxCell id="28" value="" style="shape=curlyBracket;whiteSpace=wrap;html=1;rounded=1;" parent="1" vertex="1">
                    <mxGeometry x="240" y="340" width="20" height="120" as="geometry"/>
                </mxCell>
                <mxCell id="13" value="&lt;font style=&quot;font-size: 12px&quot;&gt;信号量semaphore&lt;/font&gt;" style="text;strokeColor=none;fillColor=none;html=1;fontSize=24;fontStyle=1;verticalAlign=middle;align=center;" parent="1" vertex="1">
                    <mxGeometry x="270" y="110" width="100" height="40" as="geometry"/>
                </mxCell>
                <mxCell id="19" value="&lt;span style=&quot;font-size: 12px&quot;&gt;互斥锁mutex&lt;/span&gt;" style="text;strokeColor=none;fillColor=none;html=1;fontSize=24;fontStyle=1;verticalAlign=middle;align=center;" parent="1" vertex="1">
                    <mxGeometry x="260" y="180" width="100" height="40" as="geometry"/>
                </mxCell>
                <mxCell id="21" value="&lt;span style=&quot;font-size: 12px&quot;&gt;条件变量condtion&lt;br&gt;&lt;br&gt;&lt;/span&gt;" style="text;strokeColor=none;fillColor=none;html=1;fontSize=24;fontStyle=1;verticalAlign=middle;align=center;" parent="1" vertex="1">
                    <mxGeometry x="260" y="250" width="100" height="40" as="geometry"/>
                </mxCell>
                <mxCell id="30" value="&lt;span style=&quot;font-size: 12px&quot;&gt;工作队列&lt;br&gt;&lt;/span&gt;" style="text;strokeColor=none;fillColor=none;html=1;fontSize=24;fontStyle=1;verticalAlign=middle;align=center;" parent="1" vertex="1">
                    <mxGeometry x="280" y="430" width="100" height="40" as="geometry"/>
                </mxCell>
                <mxCell id="32" value="&lt;span style=&quot;font-size: 12px&quot;&gt;线程池&lt;br&gt;&lt;/span&gt;" style="text;strokeColor=none;fillColor=none;html=1;fontSize=24;fontStyle=1;verticalAlign=middle;align=center;" parent="1" vertex="1">
                    <mxGeometry x="280" y="370" width="100" height="40" as="geometry"/>
                </mxCell>
                <mxCell id="66" value="" style="edgeStyle=orthogonalEdgeStyle;rounded=0;orthogonalLoop=1;jettySize=auto;html=1;dashed=1;entryX=0.481;entryY=-0.011;entryDx=0;entryDy=0;entryPerimeter=0;exitX=0.54;exitY=1.033;exitDx=0;exitDy=0;exitPerimeter=0;" parent="1" source="64" target="68" edge="1">
                    <mxGeometry relative="1" as="geometry">
                        <mxPoint x="637" y="440" as="targetPoint"/>
                    </mxGeometry>
                </mxCell>
                <mxCell id="64" value="&lt;font style=&quot;font-size: 10px&quot;&gt;对监听/连接的socket&lt;br&gt;调用epoll_wait()&lt;/font&gt;" style="rounded=0;whiteSpace=wrap;html=1;" parent="1" vertex="1">
                    <mxGeometry x="584" y="320" width="105" height="40" as="geometry"/>
                </mxCell>
                <mxCell id="68" value="&lt;font style=&quot;font-size: 12px&quot;&gt;请 求 队 列&lt;/font&gt;" style="rounded=0;whiteSpace=wrap;html=1;" parent="1" vertex="1">
                    <mxGeometry x="434" y="440" width="430" height="30" as="geometry"/>
                </mxCell>
                <mxCell id="72" value="从工作队列中获取连接的socket" style="rounded=0;whiteSpace=wrap;html=1;" parent="1" vertex="1">
                    <mxGeometry x="754" y="550" width="110" height="40" as="geometry"/>
                </mxCell>
                <mxCell id="74" value="从工作队列中获取连接的socket" style="rounded=0;whiteSpace=wrap;html=1;" parent="1" vertex="1">
                    <mxGeometry x="579" y="550" width="110" height="40" as="geometry"/>
                </mxCell>
                <mxCell id="76" value="从工作队列中获取连接的socket" style="rounded=0;whiteSpace=wrap;html=1;" parent="1" vertex="1">
                    <mxGeometry x="414" y="550" width="110" height="40" as="geometry"/>
                </mxCell>
                <mxCell id="80" value="" style="endArrow=classic;html=1;dashed=1;exitX=0.482;exitY=1.017;exitDx=0;exitDy=0;exitPerimeter=0;entryX=0.573;entryY=-0.025;entryDx=0;entryDy=0;entryPerimeter=0;" parent="1" source="68" target="74" edge="1">
                    <mxGeometry width="50" height="50" relative="1" as="geometry">
                        <mxPoint x="584" y="520" as="sourcePoint"/>
                        <mxPoint x="634" y="470" as="targetPoint"/>
                    </mxGeometry>
                </mxCell>
                <mxCell id="81" value="" style="endArrow=classic;html=1;dashed=1;entryX=0.5;entryY=0;entryDx=0;entryDy=0;exitX=0.48;exitY=1;exitDx=0;exitDy=0;exitPerimeter=0;" parent="1" source="68" target="76" edge="1">
                    <mxGeometry width="50" height="50" relative="1" as="geometry">
                        <mxPoint x="641" y="483" as="sourcePoint"/>
                        <mxPoint x="604.7700000000001" y="559" as="targetPoint"/>
                    </mxGeometry>
                </mxCell>
                <mxCell id="83" value="" style="endArrow=classic;html=1;dashed=1;exitX=0.484;exitY=1.008;exitDx=0;exitDy=0;exitPerimeter=0;entryX=0.541;entryY=0.015;entryDx=0;entryDy=0;entryPerimeter=0;" parent="1" source="68" target="72" edge="1">
                    <mxGeometry width="50" height="50" relative="1" as="geometry">
                        <mxPoint x="650.8299999999999" y="492.68000000000006" as="sourcePoint"/>
                        <mxPoint x="479" y="560" as="targetPoint"/>
                    </mxGeometry>
                </mxCell>
                <mxCell id="84" value="&lt;font style=&quot;font-size: 12px&quot; color=&quot;#ff0000&quot;&gt;主线程&lt;/font&gt;&lt;font style=&quot;font-size: 12px&quot; color=&quot;#cc0000&quot;&gt;(&lt;/font&gt;&lt;font style=&quot;font-size: 12px&quot; color=&quot;#ff8000&quot;&gt;异步线程&lt;/font&gt;&lt;font style=&quot;font-size: 12px&quot; color=&quot;#cc0000&quot;&gt;)&lt;/font&gt;" style="text;strokeColor=none;fillColor=none;html=1;fontSize=24;fontStyle=1;verticalAlign=middle;align=center;" parent="1" vertex="1">
                    <mxGeometry x="610" y="295" width="55" height="20" as="geometry"/>
                </mxCell>
                <mxCell id="85" value="&lt;font style=&quot;font-size: 12px&quot; color=&quot;#ff0000&quot;&gt;工作线程&lt;/font&gt;" style="text;strokeColor=none;fillColor=none;html=1;fontSize=24;fontStyle=1;verticalAlign=middle;align=center;" parent="1" vertex="1">
                    <mxGeometry x="441.5" y="590" width="55" height="20" as="geometry"/>
                </mxCell>
                <mxCell id="88" value="&lt;font style=&quot;font-size: 12px&quot; color=&quot;#ff0000&quot;&gt;工作线程&lt;/font&gt;" style="text;strokeColor=none;fillColor=none;html=1;fontSize=24;fontStyle=1;verticalAlign=middle;align=center;" parent="1" vertex="1">
                    <mxGeometry x="619" y="590" width="55" height="20" as="geometry"/>
                </mxCell>
                <mxCell id="90" value="&lt;font style=&quot;font-size: 12px&quot; color=&quot;#ff0000&quot;&gt;工作线程&lt;/font&gt;" style="text;strokeColor=none;fillColor=none;html=1;fontSize=24;fontStyle=1;verticalAlign=middle;align=center;" parent="1" vertex="1">
                    <mxGeometry x="789" y="590" width="55" height="20" as="geometry"/>
                </mxCell>
                <mxCell id="96" value="&lt;font color=&quot;#ff0000&quot; style=&quot;font-size: 12px&quot;&gt;作用:&lt;/font&gt;&lt;span style=&quot;font-weight: normal ; font-size: 12px&quot;&gt;&lt;font style=&quot;font-size: 12px&quot;&gt;&lt;font color=&quot;#ff8000&quot; style=&quot;font-size: 12px&quot;&gt;监听socket事件&lt;/font&gt;&lt;br&gt;&amp;nbsp; &amp;nbsp; &amp;nbsp;&lt;font color=&quot;#99ff99&quot; style=&quot;font-size: 12px&quot;&gt; &amp;nbsp; &amp;nbsp;1.&amp;nbsp; 可读事件(新连接到来),则接受新连接的socket然后往epoll内核事件表中注册&lt;br&gt;&amp;nbsp; &amp;nbsp; &amp;nbsp; &amp;nbsp; &amp;nbsp;2.可写事件( 客户请求或是数据发送到client),这将该连接的socket插入请求队列&lt;br&gt;&lt;/font&gt;&lt;/font&gt;&lt;br&gt;&lt;/span&gt;" style="text;strokeColor=none;fillColor=none;html=1;fontSize=24;fontStyle=1;verticalAlign=middle;align=left;" parent="1" vertex="1">
                    <mxGeometry x="774" y="290" width="420" height="90" as="geometry"/>
                </mxCell>
                <mxCell id="99" value="&lt;font style=&quot;font-size: 12px&quot;&gt;&lt;font color=&quot;#ff0000&quot; style=&quot;font-size: 12px&quot;&gt;作用:&amp;nbsp;&lt;/font&gt;&lt;font color=&quot;#ff8000&quot; style=&quot;font-size: 12px&quot;&gt;处理任务&lt;/font&gt;&lt;/font&gt;&lt;span style=&quot;font-weight: normal ; font-size: 12px&quot;&gt;&lt;font style=&quot;font-size: 12px&quot;&gt;&lt;br&gt;&amp;nbsp; &amp;nbsp; &amp;nbsp;&lt;font color=&quot;#99ff99&quot; style=&quot;font-size: 12px&quot;&gt; &amp;nbsp;&lt;/font&gt;&lt;font color=&quot;#ff66ff&quot; style=&quot;font-size: 12px&quot;&gt; &amp;nbsp;1. 没有任务时则休眠&lt;br&gt;&amp;nbsp; &amp;nbsp; &amp;nbsp; &amp;nbsp; &amp;nbsp;2. 任务到来通过竞争(&lt;/font&gt;&lt;font color=&quot;#cc0000&quot; style=&quot;font-size: 12px&quot;&gt;怎么竞争&lt;/font&gt;&lt;font color=&quot;#99ff99&quot; style=&quot;font-size: 12px&quot;&gt;)&lt;/font&gt;&lt;font color=&quot;#ff66ff&quot; style=&quot;font-size: 12px&quot;&gt;获取任务并处理&lt;/font&gt;&lt;font color=&quot;#99ff99&quot; style=&quot;font-size: 12px&quot;&gt;[&lt;/font&gt;&lt;font color=&quot;#cc0000&quot; style=&quot;font-size: 12px&quot;&gt;我们这里用的是申请互斥锁来竞争&lt;/font&gt;&lt;font color=&quot;#99ff99&quot; style=&quot;font-size: 12px&quot;&gt;]&lt;br&gt;&amp;nbsp; &amp;nbsp; &amp;nbsp; &amp;nbsp; &amp;nbsp;&lt;/font&gt;&lt;font color=&quot;#ff66b3&quot; style=&quot;font-size: 12px&quot;&gt;3.通过竞争机制使得只有空闲的工&lt;/font&gt;&lt;font color=&quot;#ff66ff&quot; style=&quot;font-size: 12px&quot;&gt;作线程才&lt;/font&gt;&lt;font color=&quot;#ff66b3&quot; style=&quot;font-size: 12px&quot;&gt;有机会来处理新任务&lt;/font&gt;&lt;br&gt;&lt;/font&gt;&lt;br&gt;&lt;/span&gt;" style="text;strokeColor=none;fillColor=none;html=1;fontSize=24;fontStyle=1;verticalAlign=middle;align=left;" parent="1" vertex="1">
                    <mxGeometry x="990" y="527.5" width="420" height="85" as="geometry"/>
                </mxCell>
                <mxCell id="98" value="" style="endArrow=classic;startArrow=classic;html=1;entryX=0;entryY=0.5;entryDx=0;entryDy=0;" parent="1" target="96" edge="1">
                    <mxGeometry width="50" height="50" relative="1" as="geometry">
                        <mxPoint x="694" y="335" as="sourcePoint"/>
                        <mxPoint x="754" y="330" as="targetPoint"/>
                    </mxGeometry>
                </mxCell>
                <mxCell id="103" value="" style="endArrow=classic;startArrow=classic;html=1;entryX=0;entryY=0.5;entryDx=0;entryDy=0;" parent="1" edge="1">
                    <mxGeometry width="50" height="50" relative="1" as="geometry">
                        <mxPoint x="874" y="572.08" as="sourcePoint"/>
                        <mxPoint x="954" y="572.08" as="targetPoint"/>
                    </mxGeometry>
                </mxCell>
                <mxCell id="108" value="&lt;font style=&quot;font-size: 12px&quot;&gt;半同步/半反应堆&lt;/font&gt;" style="text;strokeColor=none;fillColor=none;html=1;fontSize=24;fontStyle=1;verticalAlign=middle;align=center;" parent="1" vertex="1">
                    <mxGeometry x="280" y="320" width="100" height="40" as="geometry"/>
                </mxCell>
                <mxCell id="109" value="&lt;font style=&quot;font-size: 12px&quot; color=&quot;#ff0000&quot;&gt;就绪的socket连接&lt;/font&gt;" style="text;strokeColor=none;fillColor=none;html=1;fontSize=24;fontStyle=1;verticalAlign=middle;align=center;" parent="1" vertex="1">
                    <mxGeometry x="650" y="380" width="100" height="40" as="geometry"/>
                </mxCell>
                <mxCell id="114" value="" style="edgeStyle=orthogonalEdgeStyle;rounded=0;orthogonalLoop=1;jettySize=auto;html=1;" parent="1" source="110" edge="1">
                    <mxGeometry relative="1" as="geometry">
                        <mxPoint x="830" y="660" as="targetPoint"/>
                        <Array as="points">
                            <mxPoint x="794" y="660"/>
                            <mxPoint x="794" y="660"/>
                        </Array>
                    </mxGeometry>
                </mxCell>
                <mxCell id="110" value="&lt;font style=&quot;font-weight: normal ; font-size: 24px&quot; color=&quot;#66cc00&quot;&gt;Reactor模式&lt;/font&gt;" style="text;strokeColor=none;fillColor=none;html=1;fontSize=24;fontStyle=1;verticalAlign=middle;align=center;" parent="1" vertex="1">
                    <mxGeometry x="524" y="645" width="190" height="30" as="geometry"/>
                </mxCell>
                <mxCell id="112" value="&lt;font style=&quot;font-size: 16px&quot; color=&quot;#ff33ff&quot;&gt;工作线程从soket读取client请求或往socket写入服务器应答&lt;/font&gt;" style="text;strokeColor=none;fillColor=none;html=1;fontSize=24;fontStyle=1;verticalAlign=middle;align=center;" parent="1" vertex="1">
                    <mxGeometry x="850" y="640" width="420" height="40" as="geometry"/>
                </mxCell>
                <mxCell id="118" value="" style="edgeStyle=orthogonalEdgeStyle;rounded=0;orthogonalLoop=1;jettySize=auto;html=1;" parent="1" source="115" target="116" edge="1">
                    <mxGeometry relative="1" as="geometry"/>
                </mxCell>
                <mxCell id="115" value="&lt;font&gt;&lt;font color=&quot;#66cc00&quot; style=&quot;font-size: 24px&quot;&gt;Proactor事件处理:&amp;nbsp;&lt;/font&gt;&lt;br&gt;&lt;font color=&quot;#ff33ff&quot; style=&quot;font-size: 16px&quot;&gt;&amp;nbsp;&lt;/font&gt;&lt;/font&gt;" style="text;strokeColor=none;fillColor=none;html=1;fontSize=24;fontStyle=1;verticalAlign=middle;align=left;" parent="1" vertex="1">
                    <mxGeometry x="534" y="735" width="200" height="50" as="geometry"/>
                </mxCell>
                <mxCell id="116" value="&lt;span style=&quot;color: rgb(255 , 51 , 255) ; font-size: 16px&quot;&gt;&amp;nbsp;&amp;nbsp;1. 主线程完成读写,然后将程序数据/任务类型等信息封装为一个任务对象&lt;/span&gt;&lt;br style=&quot;color: rgb(255 , 51 , 255) ; font-size: 16px&quot;&gt;&lt;span style=&quot;color: rgb(255 , 51 , 255) ; font-size: 16px&quot;&gt;&amp;nbsp; &amp;nbsp;2.然后在将其(或指向对象的指针)插入工作队列&lt;/span&gt;&lt;br style=&quot;color: rgb(255 , 51 , 255) ; font-size: 16px&quot;&gt;&lt;span style=&quot;color: rgb(255 , 51 , 255) ; font-size: 16px&quot;&gt;&amp;nbsp; &amp;nbsp;3. 工作线程取得对象后便可以直接处理&lt;/span&gt;" style="text;strokeColor=none;fillColor=none;html=1;fontSize=24;fontStyle=1;verticalAlign=middle;align=left;" parent="1" vertex="1">
                    <mxGeometry x="830" y="700" width="510" height="120" as="geometry"/>
                </mxCell>
                <mxCell id="126" value="" style="curved=1;endArrow=classic;html=1;fillColor=#d80073;strokeColor=#A50040;" parent="1" edge="1">
                    <mxGeometry width="50" height="50" relative="1" as="geometry">
                        <mxPoint x="622" y="375" as="sourcePoint"/>
                        <mxPoint x="636" y="410" as="targetPoint"/>
                        <Array as="points">
                            <mxPoint x="636" y="375"/>
                            <mxPoint x="622" y="375"/>
                            <mxPoint x="612" y="375"/>
                            <mxPoint x="612" y="410"/>
                        </Array>
                    </mxGeometry>
                </mxCell>
                <mxCell id="128" value="&lt;font style=&quot;font-size: 8px&quot; color=&quot;#ff33ff&quot;&gt;加解锁&lt;/font&gt;" style="text;strokeColor=none;fillColor=none;html=1;fontSize=24;fontStyle=1;verticalAlign=middle;align=center;" parent="1" vertex="1">
                    <mxGeometry x="610" y="380" width="39" height="20" as="geometry"/>
                </mxCell>
                <mxCell id="132" value="&lt;font style=&quot;font-size: 8px&quot; color=&quot;#ff33ff&quot;&gt;加解锁&lt;/font&gt;" style="text;strokeColor=none;fillColor=none;html=1;fontSize=24;fontStyle=1;verticalAlign=middle;align=center;" parent="1" vertex="1">
                    <mxGeometry x="618" y="490" width="39" height="20" as="geometry"/>
                </mxCell>
                <mxCell id="133" value="" style="curved=1;endArrow=classic;html=1;fillColor=#d80073;strokeColor=#A50040;entryX=0.556;entryY=1.105;entryDx=0;entryDy=0;entryPerimeter=0;" parent="1" target="132" edge="1">
                    <mxGeometry width="50" height="50" relative="1" as="geometry">
                        <mxPoint x="629" y="490" as="sourcePoint"/>
                        <mxPoint x="643" y="525" as="targetPoint"/>
                        <Array as="points">
                            <mxPoint x="643" y="500"/>
                            <mxPoint x="629" y="490"/>
                            <mxPoint x="619" y="490"/>
                            <mxPoint x="619" y="525"/>
                        </Array>
                    </mxGeometry>
                </mxCell>
                <mxCell id="134" value="&lt;font style=&quot;font-size: 8px&quot; color=&quot;#ff33ff&quot;&gt;加解锁&lt;/font&gt;" style="text;strokeColor=none;fillColor=none;html=1;fontSize=24;fontStyle=1;verticalAlign=middle;align=center;" parent="1" vertex="1">
                    <mxGeometry x="560" y="490" width="39" height="20" as="geometry"/>
                </mxCell>
                <mxCell id="135" value="" style="curved=1;endArrow=classic;html=1;fillColor=#d80073;strokeColor=#A50040;entryX=0.556;entryY=1.105;entryDx=0;entryDy=0;entryPerimeter=0;" parent="1" target="134" edge="1">
                    <mxGeometry width="50" height="50" relative="1" as="geometry">
                        <mxPoint x="571" y="490" as="sourcePoint"/>
                        <mxPoint x="585" y="525" as="targetPoint"/>
                        <Array as="points">
                            <mxPoint x="585" y="500"/>
                            <mxPoint x="571" y="490"/>
                            <mxPoint x="561" y="490"/>
                            <mxPoint x="561" y="525"/>
                        </Array>
                    </mxGeometry>
                </mxCell>
                <mxCell id="136" value="&lt;font style=&quot;font-size: 8px&quot; color=&quot;#ff33ff&quot;&gt;加解锁&lt;/font&gt;" style="text;strokeColor=none;fillColor=none;html=1;fontSize=24;fontStyle=1;verticalAlign=middle;align=center;" parent="1" vertex="1">
                    <mxGeometry x="689" y="482.5" width="39" height="20" as="geometry"/>
                </mxCell>
                <mxCell id="137" value="" style="curved=1;endArrow=classic;html=1;fillColor=#d80073;strokeColor=#A50040;entryX=0.556;entryY=1.105;entryDx=0;entryDy=0;entryPerimeter=0;" parent="1" target="136" edge="1">
                    <mxGeometry width="50" height="50" relative="1" as="geometry">
                        <mxPoint x="700" y="482.5" as="sourcePoint"/>
                        <mxPoint x="714" y="517.5" as="targetPoint"/>
                        <Array as="points">
                            <mxPoint x="714" y="492.5"/>
                            <mxPoint x="700" y="482.5"/>
                            <mxPoint x="690" y="482.5"/>
                            <mxPoint x="690" y="517.5"/>
                        </Array>
                    </mxGeometry>
                </mxCell>
                <mxCell id="138" value="" style="shape=flexArrow;endArrow=classic;html=1;" parent="1" edge="1">
                    <mxGeometry width="50" height="50" relative="1" as="geometry">
                        <mxPoint x="774" y="790" as="sourcePoint"/>
                        <mxPoint x="774" y="860" as="targetPoint"/>
                    </mxGeometry>
                </mxCell>
                <mxCell id="139" value="&lt;font&gt;&lt;font style=&quot;font-size: 24px&quot; color=&quot;#66cc00&quot;&gt;半同步/半反应堆模式缺陷&lt;/font&gt;&lt;font style=&quot;font-size: 16px&quot; color=&quot;#66cc00&quot;&gt;:&lt;/font&gt;&lt;br&gt;&lt;font color=&quot;#ff33ff&quot; style=&quot;font-size: 16px&quot;&gt;&amp;nbsp; &amp;nbsp; &amp;nbsp; &amp;nbsp; 1. 主线程添加到工作队列,工作线程从工作队列中取任务都需要对队列加锁保护,导致白白消耗CPU&lt;br&gt;&amp;nbsp; &amp;nbsp; &amp;nbsp; &amp;nbsp; 2. 每个工作线程同一时间只能处理一个请求,若客户较多,工作线程少,会导致任务堆叠,客户端响应速度越来越慢. &lt;/font&gt;&lt;font style=&quot;font-size: 16px&quot;&gt;&lt;font color=&quot;#66cc00&quot;&gt;增加工作线程数量可解决这个问题,但是线程的切换也将会消耗大量CPU时间&lt;/font&gt;&lt;br&gt;&lt;/font&gt;&lt;/font&gt;" style="rounded=0;whiteSpace=wrap;html=1;align=left;" parent="1" vertex="1">
                    <mxGeometry x="460" y="870" width="756" height="100" as="geometry"/>
                </mxCell>
                <mxCell id="141" value="" style="endArrow=classic;startArrow=classic;html=1;strokeWidth=5;" parent="1" edge="1">
                    <mxGeometry width="50" height="50" relative="1" as="geometry">
                        <mxPoint x="400" y="390" as="sourcePoint"/>
                        <mxPoint x="560" y="390" as="targetPoint"/>
                    </mxGeometry>
                </mxCell>
                <mxCell id="143" value="" style="edgeStyle=orthogonalEdgeStyle;rounded=0;orthogonalLoop=1;jettySize=auto;html=1;dashed=1;entryX=0.481;entryY=-0.011;entryDx=0;entryDy=0;entryPerimeter=0;exitX=0.54;exitY=1.033;exitDx=0;exitDy=0;exitPerimeter=0;" edge="1" parent="1">
                    <mxGeometry relative="1" as="geometry">
                        <mxPoint x="650.8299999999999" y="449.66999999999985" as="targetPoint"/>
                        <mxPoint x="650.6999999999998" y="371.31999999999994" as="sourcePoint"/>
                    </mxGeometry>
                </mxCell>
                <mxCell id="149" value="" style="endArrow=classic;html=1;dashed=1;exitX=0.482;exitY=1.017;exitDx=0;exitDy=0;exitPerimeter=0;entryX=0.573;entryY=-0.025;entryDx=0;entryDy=0;entryPerimeter=0;" edge="1" parent="1">
                    <mxGeometry width="50" height="50" relative="1" as="geometry">
                        <mxPoint x="651.2599999999998" y="480.51" as="sourcePoint"/>
                        <mxPoint x="652.0299999999997" y="559.0000000000002" as="targetPoint"/>
                    </mxGeometry>
                </mxCell>
                <mxCell id="159" value="" style="endArrow=classic;startArrow=classic;html=1;entryX=0;entryY=0.5;entryDx=0;entryDy=0;" edge="1" parent="1">
                    <mxGeometry width="50" height="50" relative="1" as="geometry">
                        <mxPoint x="884" y="582.0800000000002" as="sourcePoint"/>
                        <mxPoint x="964" y="582.0800000000002" as="targetPoint"/>
                    </mxGeometry>
                </mxCell>
                <mxCell id="160" value="&lt;font style=&quot;font-size: 12px&quot; color=&quot;#ff0000&quot;&gt;就绪的socket连接&lt;/font&gt;" style="text;strokeColor=none;fillColor=none;html=1;fontSize=24;fontStyle=1;verticalAlign=middle;align=center;" vertex="1" parent="1">
                    <mxGeometry x="660" y="390" width="100" height="40" as="geometry"/>
                </mxCell>
                <mxCell id="161" value="" style="edgeStyle=orthogonalEdgeStyle;rounded=0;orthogonalLoop=1;jettySize=auto;html=1;" edge="1" parent="1" source="162">
                    <mxGeometry relative="1" as="geometry">
                        <mxPoint x="840" y="670" as="targetPoint"/>
                        <Array as="points">
                            <mxPoint x="804" y="670"/>
                            <mxPoint x="804" y="670"/>
                        </Array>
                    </mxGeometry>
                </mxCell>
                <mxCell id="162" value="&lt;font style=&quot;font-weight: normal ; font-size: 24px&quot; color=&quot;#66cc00&quot;&gt;Reactor模式&lt;/font&gt;" style="text;strokeColor=none;fillColor=none;html=1;fontSize=24;fontStyle=1;verticalAlign=middle;align=center;" vertex="1" parent="1">
                    <mxGeometry x="534" y="655" width="190" height="30" as="geometry"/>
                </mxCell>
                <mxCell id="164" value="" style="edgeStyle=orthogonalEdgeStyle;rounded=0;orthogonalLoop=1;jettySize=auto;html=1;" edge="1" parent="1" source="165">
                    <mxGeometry relative="1" as="geometry">
                        <mxPoint x="840" y="770" as="targetPoint"/>
                    </mxGeometry>
                </mxCell>
                <mxCell id="165" value="&lt;font&gt;&lt;font color=&quot;#66cc00&quot; style=&quot;font-size: 24px&quot;&gt;Proactor事件处理:&amp;nbsp;&lt;/font&gt;&lt;br&gt;&lt;font color=&quot;#ff33ff&quot; style=&quot;font-size: 16px&quot;&gt;&amp;nbsp;&lt;/font&gt;&lt;/font&gt;" style="text;strokeColor=none;fillColor=none;html=1;fontSize=24;fontStyle=1;verticalAlign=middle;align=left;" vertex="1" parent="1">
                    <mxGeometry x="544" y="745" width="200" height="50" as="geometry"/>
                </mxCell>
                <mxCell id="167" value="" style="curved=1;endArrow=classic;html=1;fillColor=#d80073;strokeColor=#A50040;" edge="1" parent="1">
                    <mxGeometry width="50" height="50" relative="1" as="geometry">
                        <mxPoint x="632" y="385" as="sourcePoint"/>
                        <mxPoint x="646" y="420" as="targetPoint"/>
                        <Array as="points">
                            <mxPoint x="646" y="385"/>
                            <mxPoint x="632" y="385"/>
                            <mxPoint x="622" y="385"/>
                            <mxPoint x="622" y="420"/>
                        </Array>
                    </mxGeometry>
                </mxCell>
                <mxCell id="168" value="&lt;font style=&quot;font-size: 8px&quot; color=&quot;#ff33ff&quot;&gt;加解锁&lt;/font&gt;" style="text;strokeColor=none;fillColor=none;html=1;fontSize=24;fontStyle=1;verticalAlign=middle;align=center;" vertex="1" parent="1">
                    <mxGeometry x="620" y="390" width="39" height="20" as="geometry"/>
                </mxCell>
                <mxCell id="169" value="&lt;font style=&quot;font-size: 8px&quot; color=&quot;#ff33ff&quot;&gt;加解锁&lt;/font&gt;" style="text;strokeColor=none;fillColor=none;html=1;fontSize=24;fontStyle=1;verticalAlign=middle;align=center;" vertex="1" parent="1">
                    <mxGeometry x="628" y="500" width="39" height="20" as="geometry"/>
                </mxCell>
                <mxCell id="170" value="" style="curved=1;endArrow=classic;html=1;fillColor=#d80073;strokeColor=#A50040;entryX=0.556;entryY=1.105;entryDx=0;entryDy=0;entryPerimeter=0;" edge="1" parent="1" target="169">
                    <mxGeometry width="50" height="50" relative="1" as="geometry">
                        <mxPoint x="639" y="500" as="sourcePoint"/>
                        <mxPoint x="653" y="535" as="targetPoint"/>
                        <Array as="points">
                            <mxPoint x="653" y="510"/>
                            <mxPoint x="639" y="500"/>
                            <mxPoint x="629" y="500"/>
                            <mxPoint x="629" y="535"/>
                        </Array>
                    </mxGeometry>
                </mxCell>
                <mxCell id="171" value="&lt;font style=&quot;font-size: 8px&quot; color=&quot;#ff33ff&quot;&gt;加解锁&lt;/font&gt;" style="text;strokeColor=none;fillColor=none;html=1;fontSize=24;fontStyle=1;verticalAlign=middle;align=center;" vertex="1" parent="1">
                    <mxGeometry x="570" y="500" width="39" height="20" as="geometry"/>
                </mxCell>
                <mxCell id="172" value="" style="curved=1;endArrow=classic;html=1;fillColor=#d80073;strokeColor=#A50040;entryX=0.556;entryY=1.105;entryDx=0;entryDy=0;entryPerimeter=0;" edge="1" parent="1" target="171">
                    <mxGeometry width="50" height="50" relative="1" as="geometry">
                        <mxPoint x="581" y="500" as="sourcePoint"/>
                        <mxPoint x="595" y="535" as="targetPoint"/>
                        <Array as="points">
                            <mxPoint x="595" y="510"/>
                            <mxPoint x="581" y="500"/>
                            <mxPoint x="571" y="500"/>
                            <mxPoint x="571" y="535"/>
                        </Array>
                    </mxGeometry>
                </mxCell>
                <mxCell id="173" value="&lt;font style=&quot;font-size: 8px&quot; color=&quot;#ff33ff&quot;&gt;加解锁&lt;/font&gt;" style="text;strokeColor=none;fillColor=none;html=1;fontSize=24;fontStyle=1;verticalAlign=middle;align=center;" vertex="1" parent="1">
                    <mxGeometry x="699" y="492.5" width="39" height="20" as="geometry"/>
                </mxCell>
                <mxCell id="174" value="" style="curved=1;endArrow=classic;html=1;fillColor=#d80073;strokeColor=#A50040;entryX=0.556;entryY=1.105;entryDx=0;entryDy=0;entryPerimeter=0;" edge="1" parent="1" target="173">
                    <mxGeometry width="50" height="50" relative="1" as="geometry">
                        <mxPoint x="710" y="492.5" as="sourcePoint"/>
                        <mxPoint x="724" y="527.5" as="targetPoint"/>
                        <Array as="points">
                            <mxPoint x="724" y="502.5"/>
                            <mxPoint x="710" y="492.5"/>
                            <mxPoint x="700" y="492.5"/>
                            <mxPoint x="700" y="527.5"/>
                        </Array>
                    </mxGeometry>
                </mxCell>
                <mxCell id="175" value="" style="endArrow=classic;startArrow=classic;html=1;strokeWidth=5;" edge="1" parent="1">
                    <mxGeometry width="50" height="50" relative="1" as="geometry">
                        <mxPoint x="410.0000000000002" y="400" as="sourcePoint"/>
                        <mxPoint x="570" y="400" as="targetPoint"/>
                    </mxGeometry>
                </mxCell>
                <mxCell id="176" value="" style="edgeStyle=orthogonalEdgeStyle;rounded=0;orthogonalLoop=1;jettySize=auto;html=1;entryX=0.481;entryY=-0.011;entryDx=0;entryDy=0;entryPerimeter=0;exitX=0.54;exitY=1.033;exitDx=0;exitDy=0;exitPerimeter=0;" edge="1" parent="1" source="177" target="178">
                    <mxGeometry relative="1" as="geometry">
                        <mxPoint x="1987" y="510" as="targetPoint"/>
                    </mxGeometry>
                </mxCell>
                <mxCell id="177" value="&lt;font style=&quot;font-size: 10px&quot;&gt;对监听/连接的socket&lt;br&gt;调用epoll_wait()&lt;/font&gt;" style="rounded=0;whiteSpace=wrap;html=1;" vertex="1" parent="1">
                    <mxGeometry x="1934" y="390" width="105" height="40" as="geometry"/>
                </mxCell>
                <mxCell id="178" value="&lt;font style=&quot;font-size: 12px&quot;&gt;请 求 队 列&lt;/font&gt;" style="rounded=0;whiteSpace=wrap;html=1;" vertex="1" parent="1">
                    <mxGeometry x="1784" y="510" width="430" height="30" as="geometry"/>
                </mxCell>
                <mxCell id="179" value="从工作队列中获取连接的socket" style="rounded=0;whiteSpace=wrap;html=1;" vertex="1" parent="1">
                    <mxGeometry x="2104" y="620" width="110" height="40" as="geometry"/>
                </mxCell>
                <mxCell id="180" value="从工作队列中获取连接的socket" style="rounded=0;whiteSpace=wrap;html=1;" vertex="1" parent="1">
                    <mxGeometry x="1929" y="620" width="110" height="40" as="geometry"/>
                </mxCell>
                <mxCell id="181" value="从工作队列中获取连接的socket" style="rounded=0;whiteSpace=wrap;html=1;" vertex="1" parent="1">
                    <mxGeometry x="1764" y="620" width="110" height="40" as="geometry"/>
                </mxCell>
                <mxCell id="182" value="" style="endArrow=classic;html=1;exitX=0.482;exitY=1.017;exitDx=0;exitDy=0;exitPerimeter=0;entryX=0.573;entryY=-0.025;entryDx=0;entryDy=0;entryPerimeter=0;" edge="1" parent="1" source="178" target="180">
                    <mxGeometry width="50" height="50" relative="1" as="geometry">
                        <mxPoint x="1934" y="590" as="sourcePoint"/>
                        <mxPoint x="1984" y="540" as="targetPoint"/>
                    </mxGeometry>
                </mxCell>
                <mxCell id="185" value="&lt;font style=&quot;font-size: 12px&quot; color=&quot;#ff0000&quot;&gt;主线程&lt;/font&gt;&lt;font style=&quot;font-size: 12px&quot; color=&quot;#cc0000&quot;&gt;(&lt;/font&gt;&lt;font style=&quot;font-size: 12px&quot; color=&quot;#ff8000&quot;&gt;异步线程&lt;/font&gt;&lt;font style=&quot;font-size: 12px&quot; color=&quot;#cc0000&quot;&gt;)&lt;/font&gt;" style="text;strokeColor=none;fillColor=none;html=1;fontSize=24;fontStyle=1;verticalAlign=middle;align=center;" vertex="1" parent="1">
                    <mxGeometry x="1960" y="365" width="55" height="20" as="geometry"/>
                </mxCell>
                <mxCell id="186" value="&lt;font style=&quot;font-size: 12px&quot; color=&quot;#ff0000&quot;&gt;工作线程&lt;/font&gt;" style="text;strokeColor=none;fillColor=none;html=1;fontSize=24;fontStyle=1;verticalAlign=middle;align=center;" vertex="1" parent="1">
                    <mxGeometry x="1791.5" y="660" width="55" height="20" as="geometry"/>
                </mxCell>
                <mxCell id="187" value="&lt;font style=&quot;font-size: 12px&quot; color=&quot;#ff0000&quot;&gt;工作线程&lt;/font&gt;" style="text;strokeColor=none;fillColor=none;html=1;fontSize=24;fontStyle=1;verticalAlign=middle;align=center;" vertex="1" parent="1">
                    <mxGeometry x="1969" y="660" width="55" height="20" as="geometry"/>
                </mxCell>
                <mxCell id="188" value="&lt;font style=&quot;font-size: 12px&quot; color=&quot;#ff0000&quot;&gt;工作线程&lt;/font&gt;" style="text;strokeColor=none;fillColor=none;html=1;fontSize=24;fontStyle=1;verticalAlign=middle;align=center;" vertex="1" parent="1">
                    <mxGeometry x="2139" y="660" width="55" height="20" as="geometry"/>
                </mxCell>
                <mxCell id="193" value="&lt;font style=&quot;font-size: 12px&quot; color=&quot;#ff0000&quot;&gt;插入连接socket&lt;/font&gt;" style="text;strokeColor=none;fillColor=none;html=1;fontSize=24;fontStyle=1;verticalAlign=middle;align=center;" vertex="1" parent="1">
                    <mxGeometry x="2000" y="450" width="100" height="40" as="geometry"/>
                </mxCell>
                <mxCell id="200" value="" style="curved=1;endArrow=classic;html=1;fillColor=#d80073;strokeColor=#A50040;" edge="1" parent="1">
                    <mxGeometry width="50" height="50" relative="1" as="geometry">
                        <mxPoint x="1972" y="445" as="sourcePoint"/>
                        <mxPoint x="1986" y="480" as="targetPoint"/>
                        <Array as="points">
                            <mxPoint x="1986" y="445"/>
                            <mxPoint x="1972" y="445"/>
                            <mxPoint x="1962" y="445"/>
                            <mxPoint x="1962" y="480"/>
                        </Array>
                    </mxGeometry>
                </mxCell>
                <mxCell id="201" value="&lt;font style=&quot;font-size: 8px&quot; color=&quot;#ff33ff&quot;&gt;加解锁&lt;/font&gt;" style="text;strokeColor=none;fillColor=none;html=1;fontSize=24;fontStyle=1;verticalAlign=middle;align=center;" vertex="1" parent="1">
                    <mxGeometry x="1960" y="450" width="39" height="20" as="geometry"/>
                </mxCell>
                <mxCell id="211" value="" style="endArrow=classic;html=1;exitX=0.482;exitY=1.017;exitDx=0;exitDy=0;exitPerimeter=0;entryX=0.573;entryY=-0.025;entryDx=0;entryDy=0;entryPerimeter=0;" edge="1" parent="1">
                    <mxGeometry width="50" height="50" relative="1" as="geometry">
                        <mxPoint x="2166.0800000000004" y="541.51" as="sourcePoint"/>
                        <mxPoint x="2166.8500000000004" y="620" as="targetPoint"/>
                    </mxGeometry>
                </mxCell>
                <mxCell id="212" value="" style="endArrow=classic;html=1;exitX=0.482;exitY=1.017;exitDx=0;exitDy=0;exitPerimeter=0;entryX=0.573;entryY=-0.025;entryDx=0;entryDy=0;entryPerimeter=0;" edge="1" parent="1">
                    <mxGeometry width="50" height="50" relative="1" as="geometry">
                        <mxPoint x="1820.0000000000002" y="540" as="sourcePoint"/>
                        <mxPoint x="1820.7700000000002" y="618.49" as="targetPoint"/>
                    </mxGeometry>
                </mxCell>
                <mxCell id="213" value="&lt;font style=&quot;font-size: 18px&quot;&gt;半同步/半反应堆模式&lt;/font&gt;" style="text;strokeColor=none;fillColor=none;html=1;fontSize=24;fontStyle=1;verticalAlign=middle;align=center;" vertex="1" parent="1">
                    <mxGeometry x="1900" y="700" width="200" height="40" as="geometry"/>
                </mxCell>
                <mxCell id="214" value="" style="rounded=0;whiteSpace=wrap;html=1;fillColor=none;strokeColor=#FF0000;strokeWidth=3;dashed=1;" vertex="1" parent="1">
                    <mxGeometry x="1856.5" y="365" width="280" height="120" as="geometry"/>
                </mxCell>
                <mxCell id="215" value="" style="rounded=0;whiteSpace=wrap;html=1;dashed=1;strokeWidth=3;fillColor=none;strokeColor=#00FF00;" vertex="1" parent="1">
                    <mxGeometry x="1736.5" y="585" width="523.5" height="115" as="geometry"/>
                </mxCell>
                <mxCell id="216" value="&lt;font style=&quot;font-size: 16px&quot;&gt;异步线程&lt;br&gt;(主线程)&lt;/font&gt;" style="text;strokeColor=none;fillColor=none;html=1;fontSize=24;fontStyle=1;verticalAlign=middle;align=center;dashed=1;" vertex="1" parent="1">
                    <mxGeometry x="2130" y="390" width="100" height="50" as="geometry"/>
                </mxCell>
                <mxCell id="217" value="&lt;font style=&quot;font-size: 16px&quot;&gt;同步线程&lt;br&gt;(工作线程)&lt;/font&gt;" style="text;strokeColor=none;fillColor=none;html=1;fontSize=24;fontStyle=1;verticalAlign=middle;align=center;dashed=1;" vertex="1" parent="1">
                    <mxGeometry x="2270" y="623.75" width="80" height="37.5" as="geometry"/>
                </mxCell>
            </root>
        </mxGraphModel>
    </diagram>
</mxfile>